<?xml version="1.0" encoding="UTF-8"?>
<svg width="359px" height="65px" viewBox="0 0 359 65" version="1.1" xmlns="http://www.w3.org/2000/svg">
    <g  stroke="none" stroke-width="1" fill="none" fill-rule="evenodd">
        <g id="logo-new">
            <polygon id="Path" fill="#FFFFFF" fill-rule="nonzero" points="104.1 9.8 104.1 14.7 79.8 47 104.8 47 104.8 53.2 70.1 53.2 70.1 48.3 94.4 16 70.5 16 70.5 9.8"/>
            <polygon id="Path" fill="#FFFFFF" fill-rule="nonzero" points="140.8 9.8 140.8 16.1 119.6 16.1 119.6 28.1 137.1 28.1 137.1 34.3 119.6 34.3 119.6 46.9 141.6 46.9 141.6 53.2 112.4 53.2 112.4 9.8"/>
            <g id="Group" transform="translate(149.300000, 9.200000)" fill="#FFFFFF" fill-rule="nonzero">
                <path d="M16.5,22 C19.1,22 21.1,21.3 22.6,19.9 C24.1,18.5 24.9,16.7 24.9,14.3 C24.9,12 24.1,10.1 22.6,8.7 C21.1,7.3 19.1,6.6 16.5,6.6 L7.1,6.6 L7.1,21.9 L16.5,21.9 L16.5,22 Z M25,2.3 C27.3,3.4 29,5.1 30.3,7.1 C31.6,9.2 32.2,11.6 32.2,14.4 C32.2,17.3 31.4,19.8 29.9,22 C28.4,24.2 26.3,25.7 23.8,26.7 L33,44 L25.1,44 L16.8,28.2 L7.1,28.2 L7.1,44 L0,44 L0,0.6 L17.1,0.6 C20.1,0.6 22.8,1.1 25,2.3" id="Shape"/>
                <path d="M52.3,36.1 C54.4,37.4 56.8,38.1 59.5,38.1 C62.2,38.1 64.6,37.4 66.7,36.1 C68.8,34.8 70.4,32.9 71.6,30.4 C72.8,28 73.3,25.3 73.3,22.2 C73.3,19.2 72.7,16.5 71.6,14 C70.4,11.6 68.8,9.7 66.7,8.3 C64.6,7 62.2,6.3 59.5,6.3 C56.8,6.3 54.4,7 52.3,8.3 C50.2,9.6 48.6,11.5 47.4,14 C46.2,16.4 45.7,19.1 45.7,22.2 C45.7,25.2 46.3,27.9 47.4,30.4 C48.6,32.9 50.2,34.8 52.3,36.1 M70.4,41.5 C67.2,43.4 63.5,44.4 59.4,44.4 C55.3,44.4 51.6,43.4 48.4,41.5 C45.2,39.6 42.7,37 40.9,33.6 C39.1,30.2 38.2,26.5 38.2,22.2 C38.2,18 39.1,14.2 40.9,10.8 C42.7,7.4 45.2,4.8 48.4,2.9 C51.6,1 55.3,0 59.4,0 C63.5,0 67.2,1 70.4,2.9 C73.6,4.8 76.1,7.4 77.9,10.8 C79.7,14.2 80.6,17.9 80.6,22.2 C80.6,26.4 79.7,30.2 77.9,33.6 C76.1,37 73.6,39.6 70.4,41.5" id="Shape"/>
                <path d="M96.9,3 C100.1,1.2 103.8,0.2 108,0.2 C111.3,0.2 114.2,0.8 116.8,2.1 C119.4,3.3 121.6,5.1 123.2,7.4 C124.9,9.7 125.9,12.4 126.4,15.4 L119.3,15.4 C118.6,12.6 117.2,10.5 115.2,8.9 C113.2,7.3 110.7,6.5 107.7,6.5 C105,6.5 102.6,7.2 100.6,8.5 C98.6,9.8 97,11.7 95.9,14.1 C94.8,16.5 94.3,19.2 94.3,22.3 C94.3,25.4 94.8,28.1 95.9,30.5 C97,32.9 98.5,34.8 100.6,36.1 C102.6,37.4 105,38.1 107.7,38.1 C110.7,38.1 113.2,37.3 115.2,35.7 C117.2,34.1 118.6,32 119.3,29.2 L126.4,29.2 C125.9,32.3 124.9,34.9 123.3,37.2 C121.7,39.5 119.5,41.2 116.9,42.5 C114.3,43.7 111.3,44.4 108,44.4 C103.8,44.4 100.1,43.5 96.9,41.7 C93.7,39.9 91.3,37.3 89.6,34 C87.9,30.7 87,26.8 87,22.4 C87,18 87.9,14.2 89.6,10.8 C91.3,7.4 93.7,4.8 96.9,3" id="Path"/>
            </g>
            <path d="M305.9,36.4 L298.9,17.5 L292,36.4 L305.9,36.4 Z M294.9,9.8 L303.4,9.8 L319.6,53.3 L312,53.3 L307.9,42.6 L290.1,42.6 L286.1,53.3 L278.7,53.3 L294.9,9.8 Z" id="Shape" fill="#FFFFFF" fill-rule="nonzero"/>
            <path d="M342.5,31.2 C345.1,31.2 347.1,30.5 348.6,29.1 C350.1,27.7 350.9,25.9 350.9,23.5 C350.9,21.1 350.2,19.3 348.7,17.9 C347.2,16.5 345.2,15.9 342.6,15.9 L333.2,15.9 L333.2,31.2 L342.5,31.2 Z M351,11.5 C353.3,12.6 355,14.3 356.3,16.3 C357.5,18.4 358.2,20.8 358.2,23.6 C358.2,26.4 357.6,28.8 356.3,30.9 C355.1,33 353.3,34.6 351,35.7 C348.7,36.8 346.1,37.4 343.1,37.4 L333.1,37.4 L333.1,53.2 L326,53.2 L326,9.8 L343.1,9.8 C346.1,9.8 348.7,10.3 351,11.5" id="Shape" fill="#FFFFFF" fill-rule="nonzero"/>
            <g id="Group">
                <polygon id="Path" points="7.6 20.4 7.6 43.8 27.9 55.5 48.1 43.8 48.1 20.4 27.9 8.7"/>
                <polygon id="Path" fill="#F16152" fill-rule="nonzero" points="48.1 20.4 48.1 43.8 27.9 55.5 7.6 43.8 7.6 20.4 0 16 0 48.2 27.9 64.3 55.7 48.2 55.7 16"/>
                <polygon id="Path" fill="#A83031" fill-rule="nonzero" points="27.9 8.7 48.1 20.4 55.7 16 27.9 0 0 16 7.6 20.4"/>
            </g>
        </g>
    </g>
</svg>